<svg width="43" height="44" viewBox="0 0 43 44" fill="none" xmlns="http://www.w3.org/2000/svg">
<rect width="42.84" height="43.9596" rx="10.8" fill="#FF7A7A"/>
<path d="M18.293 24.709L18.293 21.459" stroke="white" stroke-width="2" stroke-linecap="round"/>
<path d="M23.707 24.709L23.707 21.459" stroke="white" stroke-width="2" stroke-linecap="round"/>
<path d="M11.25 16.041H30.75V16.041C29.0661 16.041 28.2242 16.041 27.6644 16.516C27.5812 16.5866 27.5039 16.6639 27.4333 16.7471C26.9583 17.3069 26.9583 18.1488 26.9583 19.8327V26.1244C26.9583 28.01 26.9583 28.9528 26.3725 29.5386C25.7868 30.1243 24.844 30.1243 22.9583 30.1243H19.0417C17.156 30.1243 16.2132 30.1243 15.6275 29.5386C15.0417 28.9528 15.0417 28.01 15.0417 26.1243V19.8327C15.0417 18.1488 15.0417 17.3069 14.5667 16.7471C14.4961 16.6639 14.4188 16.5866 14.3356 16.516C13.7758 16.041 12.9339 16.041 11.25 16.041V16.041Z" stroke="white" stroke-width="2" stroke-linecap="round"/>
<path d="M18.2904 12.7926C18.2904 12.7926 18.832 11.709 20.9987 11.709C23.1654 11.709 23.707 12.7923 23.707 12.7923" stroke="white" stroke-width="2" stroke-linecap="round"/>
</svg>
