<svg width="24" height="24" viewBox="0 0 24 24" fill="none" xmlns="http://www.w3.org/2000/svg">
<path fill-rule="evenodd" clip-rule="evenodd" d="M17.2028 10.7957L18.9988 8.9997C19.544 8.45445 19.8167 8.18182 19.9624 7.88773C20.2397 7.32818 20.2397 6.67122 19.9624 6.11167C19.8167 5.81757 19.544 5.54495 18.9988 4.9997C18.4535 4.45445 18.1809 4.18182 17.8868 4.03609C17.3273 3.7588 16.6703 3.7588 16.1108 4.03609C15.8167 4.18182 15.544 4.45445 14.9988 4.9997L13.1801 6.81835C14.144 8.46895 15.5301 9.84451 17.2028 10.7957ZM11.7257 8.27281L4.85517 15.1433C4.43011 15.5684 4.21758 15.7809 4.07785 16.042C3.93811 16.3031 3.87917 16.5978 3.76128 17.1873L3.14588 20.2643C3.07936 20.5969 3.0461 20.7632 3.14071 20.8578C3.23532 20.9524 3.40162 20.9191 3.73423 20.8526L6.81121 20.2372C7.40066 20.1193 7.69539 20.0604 7.95649 19.9206C8.21758 19.7809 8.43012 19.5684 8.85518 19.1433L15.7446 12.2539C14.1229 11.2383 12.7512 9.87597 11.7257 8.27281Z" fill="#222222"/>
</svg>
