<svg width="105" height="55" viewBox="0 0 105 55" fill="none" xmlns="http://www.w3.org/2000/svg">
<line x1="5.40151" y1="50.513" x2="100.513" y2="49.5985" stroke="#94C43A" stroke-width="8.88889" stroke-linecap="round"/>
<path d="M2.92045 31V28.6705L12.375 16.6591V16.5H3.22727V13.5455H16.6136V16.0227L7.52273 27.8864V28.0455H16.9318V31H2.92045ZM31.9972 23.7614V13.5455H35.4062V31H32.0653V27.9773H31.8835C31.482 28.9091 30.8381 29.6856 29.9517 30.3068C29.0729 30.9205 27.9782 31.2273 26.6676 31.2273C25.5464 31.2273 24.554 30.9811 23.6903 30.4886C22.8343 29.9886 22.16 29.25 21.6676 28.2727C21.1828 27.2955 20.9403 26.0871 20.9403 24.6477V13.5455H24.3381V24.2386C24.3381 25.428 24.6676 26.375 25.3267 27.0795C25.9858 27.7841 26.8419 28.1364 27.8949 28.1364C28.5313 28.1364 29.1638 27.9773 29.7926 27.6591C30.429 27.3409 30.9555 26.8598 31.3722 26.2159C31.7964 25.572 32.0047 24.7538 31.9972 23.7614ZM39.9716 31V13.5455H43.2557V16.3182H43.4375C43.7557 15.3788 44.3163 14.6402 45.1193 14.1023C45.9299 13.5568 46.8466 13.2841 47.8693 13.2841C48.0814 13.2841 48.3314 13.2917 48.6193 13.3068C48.9148 13.322 49.1458 13.3409 49.3125 13.3636V16.6136C49.1761 16.5758 48.9337 16.5341 48.5852 16.4886C48.2367 16.4356 47.8883 16.4091 47.5398 16.4091C46.7367 16.4091 46.0208 16.5795 45.392 16.9205C44.7708 17.2538 44.2784 17.7197 43.9148 18.3182C43.5511 18.9091 43.3693 19.5833 43.3693 20.3409V31H39.9716ZM63.3097 23.7614V13.5455H66.7188V31H63.3778V27.9773H63.196C62.7945 28.9091 62.1506 29.6856 61.2642 30.3068C60.3854 30.9205 59.2907 31.2273 57.9801 31.2273C56.8589 31.2273 55.8665 30.9811 55.0028 30.4886C54.1468 29.9886 53.4725 29.25 52.9801 28.2727C52.4953 27.2955 52.2528 26.0871 52.2528 24.6477V13.5455H55.6506V24.2386C55.6506 25.428 55.9801 26.375 56.6392 27.0795C57.2983 27.7841 58.1544 28.1364 59.2074 28.1364C59.8438 28.1364 60.4763 27.9773 61.1051 27.6591C61.7415 27.3409 62.268 26.8598 62.6847 26.2159C63.1089 25.572 63.3172 24.7538 63.3097 23.7614ZM56.1733 10.8068C55.6354 10.8068 55.1657 10.6098 54.7642 10.2159C54.3627 9.81439 54.1619 9.35227 54.1619 8.82954C54.1619 8.26136 54.3627 7.78788 54.7642 7.40909C55.1657 7.0303 55.6354 6.84091 56.1733 6.84091C56.7415 6.84091 57.215 7.0303 57.5938 7.40909C57.9801 7.78788 58.1733 8.26136 58.1733 8.82954C58.1733 9.35227 57.9801 9.81439 57.5938 10.2159C57.215 10.6098 56.7415 10.8068 56.1733 10.8068ZM62.8551 10.8068C62.3172 10.8068 61.8475 10.6098 61.446 10.2159C61.0445 9.81439 60.8438 9.35227 60.8438 8.82954C60.8438 8.26136 61.0445 7.78788 61.446 7.40909C61.8475 7.0303 62.3172 6.84091 62.8551 6.84091C63.4233 6.84091 63.8968 7.0303 64.2756 7.40909C64.6619 7.78788 64.8551 8.26136 64.8551 8.82954C64.8551 9.35227 64.6619 9.81439 64.2756 10.2159C63.8968 10.6098 63.4233 10.8068 62.8551 10.8068ZM78.6364 31.3523C76.947 31.3523 75.4924 30.9697 74.2727 30.2045C73.0606 29.4318 72.1288 28.3674 71.4773 27.0114C70.8258 25.6553 70.5 24.1023 70.5 22.3523C70.5 20.5795 70.8333 19.0152 71.5 17.6591C72.1667 16.2955 73.1061 15.2311 74.3182 14.4659C75.5303 13.7008 76.9583 13.3182 78.6023 13.3182C79.928 13.3182 81.1098 13.5644 82.1477 14.0568C83.1856 14.5417 84.0227 15.2235 84.6591 16.1023C85.303 16.9811 85.6856 18.0076 85.8068 19.1818H82.5C82.3182 18.3636 81.9015 17.6591 81.25 17.0682C80.6061 16.4773 79.7424 16.1818 78.6591 16.1818C77.7121 16.1818 76.8826 16.4318 76.1705 16.9318C75.4659 17.4242 74.9167 18.1288 74.5227 19.0455C74.1288 19.9545 73.9318 21.0303 73.9318 22.2727C73.9318 23.5455 74.125 24.6439 74.5114 25.5682C74.8977 26.4924 75.4432 27.2083 76.1477 27.7159C76.8598 28.2235 77.697 28.4773 78.6591 28.4773C79.303 28.4773 79.8864 28.3598 80.4091 28.125C80.9394 27.8826 81.3826 27.5379 81.7386 27.0909C82.1023 26.6439 82.3561 26.1061 82.5 25.4773H85.8068C85.6856 26.6061 85.3182 27.6136 84.7045 28.5C84.0909 29.3864 83.2689 30.0833 82.2386 30.5909C81.2159 31.0985 80.0152 31.3523 78.6364 31.3523ZM92.5653 25.0795L92.5426 20.9318H93.1335L100.088 13.5455H104.156L96.2244 21.9545H95.6903L92.5653 25.0795ZM89.4403 31V7.72727H92.8381V31H89.4403ZM100.463 31L94.2131 22.7045L96.554 20.3295L104.634 31H100.463Z" fill="#94C43A"/>
</svg>
