<svg width="30" height="30" viewBox="0 0 30 30" fill="none" xmlns="http://www.w3.org/2000/svg">
<path d="M11.875 18.125L11.875 14.375" stroke="#FF0000" stroke-linecap="round"/>
<path d="M18.125 18.125L18.125 14.375" stroke="#FF0000" stroke-linecap="round"/>
<path d="M3.75 8.125H26.25H25.875C23.9894 8.125 23.0466 8.125 22.4608 8.71079C21.875 9.29657 21.875 10.2394 21.875 12.125V20.375C21.875 22.2606 21.875 23.2034 21.2892 23.7892C20.7034 24.375 19.7606 24.375 17.875 24.375H12.125C10.2394 24.375 9.29657 24.375 8.71079 23.7892C8.125 23.2034 8.125 22.2606 8.125 20.375V12.125C8.125 10.2394 8.125 9.29657 7.53921 8.71079C6.95343 8.125 6.01062 8.125 4.125 8.125H3.75Z" stroke="#FF0000" stroke-linecap="round"/>
<path d="M11.875 4.3753C11.875 4.3753 12.5 3.125 15 3.125C17.5 3.125 18.125 4.375 18.125 4.375" stroke="#FF0000" stroke-linecap="round"/>
</svg>
