<svg width="81" height="80" viewBox="0 0 81 80" fill="none" xmlns="http://www.w3.org/2000/svg">
<path d="M61.4524 72.381H8.11905V19.0476H42.4048V11.4286H8.11905C3.92857 11.4286 0.5 14.8571 0.5 19.0476V72.381C0.5 76.5714 3.92857 80 8.11905 80H61.4524C65.6429 80 69.0714 76.5714 69.0714 72.381V38.0952H61.4524V72.381ZM31.7762 60.3048L28.4853 56.3423C26.3401 53.7593 22.3563 53.8215 20.2928 56.4703L13.8333 64.7619H55.7381L46.3864 52.3194C44.304 49.5488 40.1575 49.5158 38.0312 52.2529L31.7762 60.3048ZM69.0714 11.4286V3.80953C69.0714 1.70559 67.3658 0 65.2619 0C63.158 0 61.4524 1.70558 61.4524 3.80952V11.4286H53.8333C51.7294 11.4286 50.0238 13.1342 50.0238 15.2381C50.0238 17.342 51.7294 19.0476 53.8333 19.0476H61.4524V26.6286C61.4524 28.7325 63.158 30.4381 65.2619 30.4381C67.3658 30.4381 69.0714 28.7325 69.0714 26.6286V19.0476H76.6905C78.7944 19.0476 80.5 17.342 80.5 15.2381C80.5 13.1342 78.7944 11.4286 76.6905 11.4286H69.0714Z" fill="#94C43A"/>
</svg>
